<svg width="17" height="18" viewBox="0 0 17 18" fill="none" xmlns="http://www.w3.org/2000/svg">
<path fill-rule="evenodd" clip-rule="evenodd" d="M2.12131 0.707076C1.73078 0.316552 1.09762 0.316552 0.707093 0.707076C0.316569 1.0976 0.316569 1.73077 0.707093 2.12129L7.49999 8.91418L0.707094 15.7071C0.31657 16.0976 0.316569 16.7308 0.707094 17.1213C1.09762 17.5118 1.73078 17.5118 2.12131 17.1213L8.9142 10.3284L15.2929 16.7071C15.6834 17.0976 16.3166 17.0976 16.7071 16.7071C17.0976 16.3166 17.0976 15.6834 16.7071 15.2929L10.3284 8.91418L16.7071 2.53551C17.0976 2.14498 17.0976 1.51182 16.7071 1.12129C16.3166 0.730769 15.6834 0.730769 15.2929 1.12129L8.9142 7.49997L2.12131 0.707076Z" fill="black"/>
</svg>
